<svg xmlns="http://www.w3.org/2000/svg" viewBox="0 0 266.85 75.65"><defs><style>.cls-1{fill:#21364b;}</style></defs><title>Brendan Signature</title><g id="Layer_2" data-name="Layer 2"><g id="Text"><path class="cls-1" d="M30.24,24.14a9.85,9.85,0,0,0-5.56-2.31,10.86,10.86,0,0,0,7.69-2.74q3.95-3.59,3.94-7.89T32,3.71Q27.76.52,20,.51a28.24,28.24,0,0,0-19.32,7A2,2,0,0,0,0,9a2.59,2.59,0,0,0,.8,1.83,2.64,2.64,0,0,0,2,.82,3.9,3.9,0,0,0,2.45-1,21.74,21.74,0,0,1,6.44-3.88A24.2,24.2,0,0,1,20,5.53q4.95,0,7.23,1.88a5.93,5.93,0,0,1,2.28,4.79v.45a8.45,8.45,0,0,1-2.7,5.56q-2.27,2-6.76,2h-.28l-1.88-.12c-.61,0-1.11.09-1.49.15a1.86,1.86,0,0,0-1,.48,1.43,1.43,0,0,0-.46,1.14c0,.65.6,1.13,1.8,1.45a29,29,0,0,0,4,.77,8.17,8.17,0,0,1,4,1.66,4.57,4.57,0,0,1,1.8,3.87q0,3.83-4.59,7.15A17.94,17.94,0,0,1,11,40.07a2.89,2.89,0,0,1-1.62-.26c-.18-.17-.26-.62-.26-1.34a78.28,78.28,0,0,1,1.59-15.16q1.6-8,4.28-11.34a3.13,3.13,0,0,0-2.85-1.82q-4.34,0-7,7.63T2.45,40.64c0,1.18.82,2.11,2.45,2.79a17.54,17.54,0,0,0,6.67,1,24.92,24.92,0,0,0,14.79-4.68q6.59-4.66,6.58-10.48A6.38,6.38,0,0,0,30.24,24.14Z"/><path class="cls-1" d="M157.65,33.91a2.87,2.87,0,0,0-.46-1.62,1.22,1.22,0,0,0-1-.71,1.48,1.48,0,0,0-1,.39q-3.13,2.69-4.5,2.68-1.77,0,.91-6.66A17,17,0,0,0,153,22.8c0-1.67-.87-2.51-2.62-2.51l-.57.06A9.63,9.63,0,0,0,144.6,23a26.29,26.29,0,0,0-5.36,6.87,35.89,35.89,0,0,1,1.54-5.56,9.08,9.08,0,0,0,.74-2.42,1.31,1.31,0,0,0-.6-1,2.55,2.55,0,0,0-1.57-.46c-1.18,0-2.07.77-2.68,2.28a33.52,33.52,0,0,0-2.31,8.83,10.29,10.29,0,0,1-2.1,2,4.28,4.28,0,0,1-2.25,1c-.57,0-.86-.34-.86-1a1.64,1.64,0,0,1,.06-.51l1.59-9.18a1.87,1.87,0,0,0,.06-.57q0-1.59-1.65-1.59h-.34l-1.54.17,0-.46c0-.83-.77-1.25-2.33-1.25q-4,0-7.73,3.65a12,12,0,0,0-3.69,8.29c-2,2.14-3.66,3.22-4.94,3.22a2.48,2.48,0,0,1-2-1A5.24,5.24,0,0,1,105.9,31v-.74q.67-1.08,3.36-4.82c1.79-2.49,3.16-4.49,4.13-6a37,37,0,0,0,2.85-5.62,15.56,15.56,0,0,0,1.4-5.89,6.86,6.86,0,0,0-1.31-4.28,4.41,4.41,0,0,0-3.71-1.71q-4.38,0-6.84,4.53t-3.7,14.17a6.75,6.75,0,0,0-1.83-.23q-4,0-7,3.73a12.91,12.91,0,0,0-3,7.7,2.59,2.59,0,0,0-.31.19q-3.13,2.69-4.5,2.68-1.77,0,.91-6.66a17.13,17.13,0,0,0,1.43-5.19c0-1.67-.88-2.51-2.63-2.51l-.57.06A9.63,9.63,0,0,0,79.28,23a26.5,26.5,0,0,0-5.36,6.87,37.06,37.06,0,0,1,1.54-5.56,8.69,8.69,0,0,0,.74-2.42,1.31,1.31,0,0,0-.6-1A2.52,2.52,0,0,0,74,20.4c-1.18,0-2.07.77-2.68,2.28a32.86,32.86,0,0,0-2.33,9c-.06.05-.13.07-.18.12A12.36,12.36,0,0,1,65,34.25a12,12,0,0,1-4.51.92,3.15,3.15,0,0,1-3-1.49A16.82,16.82,0,0,0,65,30.81,5.91,5.91,0,0,0,67.6,26.1,5.56,5.56,0,0,0,66.17,22a5.23,5.23,0,0,0-3.87-1.42A9.17,9.17,0,0,0,55,24.34c-.4.49-.75,1-1.08,1.48A14.84,14.84,0,0,1,50.24,27c-.59,0-.88-.1-.88-.29,0,0,.21-.55.62-1.54a6.9,6.9,0,0,0,.63-2.67c0-1.26-1-1.88-2.85-1.88q-1.42,0-4,3.44a33.27,33.27,0,0,0-3.93,6.64A41.94,41.94,0,0,0,41,26.13a32.13,32.13,0,0,0,.71-3.87,1.7,1.7,0,0,0-.54-1.17,1.85,1.85,0,0,0-1.4-.57c-1.44,0-2.53.93-3.25,2.79a38.36,38.36,0,0,0-1.48,10.83v1.14q0,4,2.79,4a3.12,3.12,0,0,0,3-1.71q1.42-3.88,2.73-6.76c.88-1.91,1.37-3,1.49-3.27a5,5,0,0,0-.12,1q0,2.85,4.08,2.85A10.6,10.6,0,0,0,52,31a9.42,9.42,0,0,0-.06,1.06q0,4,2.4,5.78a9.32,9.32,0,0,0,5.78,1.8,13.45,13.45,0,0,0,6.41-1.6A15.14,15.14,0,0,0,69,36.48c.29,2,1.08,3,2.39,3A2.28,2.28,0,0,0,73,38.93,5.29,5.29,0,0,0,74,37a25,25,0,0,1,3.45-6.84A8.77,8.77,0,0,1,80.88,27H81c.15,0,.23.1.23.31a31.32,31.32,0,0,1-1.06,3.59,18.15,18.15,0,0,0-1,5.16q0,3.36,3.88,3.36c2.36,0,5-1.16,8-3.46a6.48,6.48,0,0,0,1.24,1.67,6.73,6.73,0,0,0,4.87,2q3.6,0,5.08-3.82a5.61,5.61,0,0,0,2.53,2.71,7.26,7.26,0,0,0,3.56,1A9.93,9.93,0,0,0,114.72,37a4.66,4.66,0,0,0,.47.69,5.54,5.54,0,0,0,4.53,1.91,5.9,5.9,0,0,0,4.93-2.79l.74-1a3.61,3.61,0,0,0,1.23,2.45,4.36,4.36,0,0,0,3.1,1,7.07,7.07,0,0,0,4.13-1.54c.21-.15.4-.3.6-.46.37,1.44,1.1,2.17,2.22,2.17a2.29,2.29,0,0,0,1.63-.51,5.16,5.16,0,0,0,1-1.94,25.62,25.62,0,0,1,3.45-6.84A8.77,8.77,0,0,1,146.19,27h.12c.15,0,.22.1.22.31a32.4,32.4,0,0,1-1.05,3.59,18.15,18.15,0,0,0-1,5.16q0,3.36,3.87,3.36t8.78-4.1A1.82,1.82,0,0,0,157.65,33.91ZM108.29,12.05c.88-3.13,2.07-4.7,3.59-4.7.65,0,1,.4,1,1.2q0,3.82-6.84,15.79A90.91,90.91,0,0,1,108.29,12.05ZM58.59,26.84A4.4,4.4,0,0,1,61.75,25c1,0,1.57.36,1.57,1.08q0,1.38-2.16,2.88A13.37,13.37,0,0,1,57,31,6.18,6.18,0,0,1,58.59,26.84Zm42.63,1.43q-.68,6.68-3.24,6.67t-2.63-3.71A7.93,7.93,0,0,1,97,26.42a6.26,6.26,0,0,1,4.7-2.48Zm23.94,1.48a7.73,7.73,0,0,1-1.79,3.85,3.64,3.64,0,0,1-2.6,1.22q-2.28,0-2.28-2.67a8.88,8.88,0,0,1,2.31-5.53,7.56,7.56,0,0,1,5.67-3Z"/><path class="cls-1" d="M200.62,34.14a10,10,0,0,0-1.71-5.93,15,15,0,0,0-4.84-3.93q-2.06-1.14-4-2.14l-3.45-1.76q-1.51-.78-2.22-1.17l-1.71-.94a10.16,10.16,0,0,1-1.43-.89c-.28-.22-.61-.5-1-.82a2.59,2.59,0,0,1-.71-.94,4.84,4.84,0,0,1-.51-2.17,4.66,4.66,0,0,1,2.31-4,11.21,11.21,0,0,1,6.35-1.57q8.1,0,8.1,4.39A5.12,5.12,0,0,1,194,16.24a2.77,2.77,0,0,0-.68,1.71,2.24,2.24,0,0,0,.8,1.71,3.1,3.1,0,0,0,2.22.74,4.5,4.5,0,0,0,3-1.59,9.42,9.42,0,0,0,2.62-6.5,7.7,7.7,0,0,0-3.87-6.67,18.11,18.11,0,0,0-9.69-2.33q-9.3,0-14.08,4.78a7.89,7.89,0,0,0-2.51,5.82A7.8,7.8,0,0,0,173,18.47c.3.45.55.83.74,1.14a4.53,4.53,0,0,0,1.06,1.05l1.14.88a12.14,12.14,0,0,0,1.33.86l1.37.8,1.6.85,1.94,1c.49.26,1.5.78,3,1.54s2.62,1.34,3.3,1.74a24.84,24.84,0,0,1,2.4,1.62,5.46,5.46,0,0,1,2.5,4.56q0,6.27-10.14,6.27-5.13,0-7.7-1.54A5.45,5.45,0,0,1,173,34.2a5,5,0,0,1,.8-2.65,4.35,4.35,0,0,0,.8-2.08q0-1.71-1.89-1.71a5.51,5.51,0,0,0-4.47,2,7,7,0,0,0-1.68,4.59v.45A9.41,9.41,0,0,0,169.22,41q4.5,4.78,13.79,4.78,7.81,0,12.71-3.1A9.66,9.66,0,0,0,200.62,34.14Z"/><path class="cls-1" d="M266.4,31.32c-.31-.66-.67-1-1.09-1a1.8,1.8,0,0,0-1.25.63,11,11,0,0,1-2.54,2.59,4.28,4.28,0,0,1-2.25,1c-.57,0-.85-.34-.85-1a2.11,2.11,0,0,1,.05-.51l1.6-9.18a1.87,1.87,0,0,0,.06-.57c0-1.06-.56-1.59-1.66-1.59h-.34l-1.54.17.06-.46c0-.83-.78-1.25-2.34-1.25q-4,0-7.72,3.65a12,12,0,0,0-3.69,8A12.4,12.4,0,0,1,239,34.25a11.87,11.87,0,0,1-4.5.92,3.13,3.13,0,0,1-3-1.49,16.82,16.82,0,0,0,7.63-2.87,5.91,5.91,0,0,0,2.57-4.71,5.56,5.56,0,0,0-1.43-4.1,5.23,5.23,0,0,0-3.87-1.42,9.2,9.2,0,0,0-7.3,3.76A12.26,12.26,0,0,0,226,31.66c-3.1,2.18-4.89,3.28-5.38,3.28s-.74-.23-.74-.69a6.72,6.72,0,0,1,.8-2.16A66.63,66.63,0,0,0,224,24.65a18.64,18.64,0,0,0,.54-2,1.87,1.87,0,0,0-1-1.68,5.53,5.53,0,0,0-2.82-.6q-1.83,0-5.31,2.6a19.31,19.31,0,0,0-5.64,6.92l1.6-6.78q7.13-5.41,10.2-9.66a18.76,18.76,0,0,0,3.65-8.12V4.84A5,5,0,0,0,224,1.34,4.37,4.37,0,0,0,220.57,0Q217,0,214.05,3.45a25.21,25.21,0,0,0-4.76,8.75A83.13,83.13,0,0,0,205,32.54c-.11,1.37-.17,2.27-.17,2.68q0,4.11,2.28,4.11a1.85,1.85,0,0,0,1.6-.57,6.08,6.08,0,0,0,.74-1.88,20,20,0,0,1,3.82-6.44q3.14-3.95,4.33-3.94c.19,0,.29.15.29.43a27.71,27.71,0,0,1-1.51,4.1,16.42,16.42,0,0,0-1.52,5.45c0,2.16,1.24,3.25,3.71,3.25a13.2,13.2,0,0,0,5-1.14,17.14,17.14,0,0,0,3.62-2,5.2,5.2,0,0,0,1.22,1.3,9.34,9.34,0,0,0,5.78,1.8,13.52,13.52,0,0,0,6.42-1.6,15.18,15.18,0,0,0,2.92-2,6.5,6.5,0,0,0,.95,1.61A5.57,5.57,0,0,0,249,39.61a5.9,5.9,0,0,0,4.93-2.79l.74-1a3.66,3.66,0,0,0,1.23,2.45,4.39,4.39,0,0,0,3.11,1,7.1,7.1,0,0,0,4.13-1.54,16.37,16.37,0,0,0,3.56-3.42,4.1,4.1,0,0,0,.17-1.25A4.31,4.31,0,0,0,266.4,31.32ZM213.79,12.54q2.44-7,5.13-6.95,1.08,0,1.08,1.14,0,1.75-2.31,5.3a46.46,46.46,0,0,1-5.84,7.12A61.29,61.29,0,0,1,213.79,12.54Zm18.86,14.3A4.42,4.42,0,0,1,235.82,25q1.56,0,1.56,1.08,0,1.38-2.16,2.88a13.26,13.26,0,0,1-4.16,2A6.18,6.18,0,0,1,232.65,26.84Zm21.78,2.91a7.65,7.65,0,0,1-1.8,3.85A3.63,3.63,0,0,1,250,34.82q-2.28,0-2.28-2.67a8.88,8.88,0,0,1,2.31-5.53,7.54,7.54,0,0,1,5.67-3Z"/><polygon class="cls-1" points="16.1 69.4 12.02 59.09 9.51 59.09 11.04 62.94 8.39 69.71 4.68 59.09 1.71 59.09 8.06 75.65 12.28 66.13 16.04 75.6 22.24 59.09 19.51 59.09 16.1 69.4"/><polygon class="cls-1" points="33.9 68.14 41.02 68.14 41.02 65.69 33.9 65.69 33.9 61.45 41.89 61.45 41.89 59.01 31.34 59.01 31.34 74.9 42.2 74.9 42.2 72.46 33.9 72.46 33.9 68.14"/><path class="cls-1" d="M59.36,66.61a4,4,0,0,0,1.52-1.46A4.11,4.11,0,0,0,61.42,63,3.47,3.47,0,0,0,60,60a6.41,6.41,0,0,0-3.87-1H51.83V74.9h5a6.42,6.42,0,0,0,3.85-1.12,4,4,0,0,0,1.56-3.44,3.53,3.53,0,0,0-.75-2.23A4.93,4.93,0,0,0,59.36,66.61Zm-5-5.16h1.9a2.93,2.93,0,0,1,1.85.53,1.88,1.88,0,0,1,.66,1.57,2.31,2.31,0,0,1-.55,1.59,2.06,2.06,0,0,1-1.65.64H54.38ZM58.77,72a3.61,3.61,0,0,1-2.09.56h-2.3V68.22H56.5a4.45,4.45,0,0,1,2.2.5,1.75,1.75,0,0,1,.88,1.64A1.85,1.85,0,0,1,58.77,72Z"/><path class="cls-1" d="M94.27,60.19a9.4,9.4,0,0,0-5-1.18H84.8V74.9h5.29a8.32,8.32,0,0,0,4-1,7.29,7.29,0,0,0,2.89-2.7A7.63,7.63,0,0,0,98,67.17a9,9,0,0,0-.89-4A7.14,7.14,0,0,0,94.27,60.19ZM94.66,70a4.77,4.77,0,0,1-2,1.87,6.79,6.79,0,0,1-3,.63H87.36v-11H90a5.91,5.91,0,0,1,2.55.59,4.86,4.86,0,0,1,2,1.85A6.48,6.48,0,0,1,94.66,70Z"/><polygon class="cls-1" points="110.09 68.14 117.21 68.14 117.21 65.69 110.09 65.69 110.09 61.45 118.08 61.45 118.08 59.01 107.54 59.01 107.54 74.9 118.39 74.9 118.39 72.46 110.09 72.46 110.09 68.14"/><polygon class="cls-1" points="133.87 69.44 129.68 59.01 126.64 59.01 133.76 75.65 140.88 59.01 137.89 59.01 133.87 69.44"/><polygon class="cls-1" points="152.54 68.14 159.66 68.14 159.66 65.69 152.54 65.69 152.54 61.45 160.54 61.45 160.54 59.01 149.99 59.01 149.99 74.9 160.84 74.9 160.84 72.46 152.54 72.46 152.54 68.14"/><polygon class="cls-1" points="173.03 59.01 170.47 59.01 170.47 74.9 180.87 74.9 180.87 72.46 173.03 72.46 173.03 59.01"/><path class="cls-1" d="M201.19,60a7.94,7.94,0,0,0-8.13,0,8.29,8.29,0,0,0-3,3,8.12,8.12,0,0,0,0,8.13A8.15,8.15,0,0,0,201.2,74a8.26,8.26,0,0,0,3-2.95,8,8,0,0,0,0-8.1A8.45,8.45,0,0,0,201.19,60Zm.74,9.88a5.57,5.57,0,0,1-2,2,5.21,5.21,0,0,1-2.75.75,5.33,5.33,0,0,1-2.8-.76A5.66,5.66,0,0,1,191.63,67a5.82,5.82,0,0,1,.73-2.86,5.53,5.53,0,0,1,2-2.08,5.46,5.46,0,0,1,5.56,0,5.65,5.65,0,0,1,2,2.08,5.91,5.91,0,0,1,0,5.71Z"/><path class="cls-1" d="M219.28,59h-4.5V74.9h2.56V69.38h2.29a5.82,5.82,0,0,0,3.11-.75,4.51,4.51,0,0,0,1.76-1.95,6.12,6.12,0,0,0,.54-2.56,4.74,4.74,0,0,0-1.52-3.76A6.2,6.2,0,0,0,219.28,59Zm3,6.38a2.54,2.54,0,0,1-.92,1.1,3,3,0,0,1-1.69.44h-2.29V61.45h2.35a2.59,2.59,0,0,1,2.18.85,3,3,0,0,1,.64,1.86A3.19,3.19,0,0,1,222.24,65.39Z"/><polygon class="cls-1" points="236.79 68.14 243.91 68.14 243.91 65.69 236.79 65.69 236.79 61.45 244.79 61.45 244.79 59.01 234.24 59.01 234.24 74.9 245.09 74.9 245.09 72.46 236.79 72.46 236.79 68.14"/><path class="cls-1" d="M264.45,66.83a5.93,5.93,0,0,0,.62-2.71,4.64,4.64,0,0,0-1.6-3.76A6.43,6.43,0,0,0,259.2,59h-4.48V74.9h2.56V69.38h2.55l3.58,5.52h2.95l-3.86-6.13A4.26,4.26,0,0,0,264.45,66.83Zm-2.69-.74a2.68,2.68,0,0,1-2.21.84h-2.27V61.45h2.36a2.78,2.78,0,0,1,1.65.45,2.41,2.41,0,0,1,.9,1.07,3.06,3.06,0,0,1,.26,1.23A2.9,2.9,0,0,1,261.76,66.09Z"/></g></g></svg>